<svg fill="#4a90e2" xmlns="http://www.w3.org/2000/svg"  viewBox="0 0 50 50" width="50px" height="50px"><path d="M 18 3 C 9.589844 3 3 5.855469 3 9.5 C 3 13.144531 9.589844 16 18 16 C 22.4375 16 26.351563 15.199219 29.078125 13.914063 C 29.320313 11.21875 30.269531 9.03125 32.46875 8.25 C 32.546875 8.21875 32.628906 8.207031 32.703125 8.1875 C 31.339844 5.191406 25.367188 3 18 3 Z M 18 8 C 19.65625 8 21 8.671875 21 9.5 C 21 10.328125 19.65625 11 18 11 C 16.34375 11 15 10.328125 15 9.5 C 15 8.671875 16.34375 8 18 8 Z M 34.140625 10.011719 C 33.792969 9.976563 33.457031 10.019531 33.136719 10.132813 C 29.703125 11.355469 30.90625 20.265625 33.484375 28.027344 L 33.523438 28.152344 L 38 26 L 39 28 L 35.605469 33.535156 C 37.96875 38.871094 41.265625 44 44.097656 44 C 44.359375 44 44.613281 43.957031 44.863281 43.867188 C 48.457031 42.585938 47.058594 33.261719 44.238281 25.140625 C 41.628906 17.613281 38.003906 11.65625 35.21875 10.324219 C 34.851563 10.144531 34.492188 10.042969 34.140625 10.011719 Z M 3 13.6875 L 3 16.5 C 3 20.144531 9.589844 23 18 23 C 22.6875 23 26.800781 22.113281 29.53125 20.699219 C 29.261719 19.179688 29.066406 17.613281 29.019531 16.121094 C 26.113281 17.308594 22.320313 18 18 18 C 11.257813 18 5.785156 16.324219 3 13.6875 Z M 3 20.6875 L 3 23.5 C 3 27.144531 9.589844 30 18 30 C 23.628906 30 28.429688 28.71875 30.996094 26.78125 C 30.652344 25.625 30.273438 24.226563 29.9375 22.714844 C 26.9375 24.152344 22.792969 25 18 25 C 11.257813 25 5.785156 23.324219 3 20.6875 Z M 3 27.6875 L 3 30.5 C 3 34.144531 9.589844 37 18 37 C 25.289063 37 31.195313 34.855469 32.644531 31.910156 L 31.625 28.78125 L 31.621094 28.765625 C 28.597656 30.773438 23.765625 32 18 32 C 11.257813 32 5.785156 30.324219 3 27.6875 Z M 3 34.6875 L 3 38.488281 C 3 42.699219 9.589844 45 18 45 C 23.058594 45 27.441406 44.164063 30.144531 42.585938 L 30.160156 42.5625 L 29.808594 41.632813 L 29.09375 39.734375 L 31 39.046875 L 33 38.320313 L 33 34.6875 C 30.214844 37.324219 24.742188 39 18 39 C 11.257813 39 5.785156 37.324219 3 34.6875 Z M 37 39 L 31.679688 40.925781 L 33.996094 47.050781 L 38.160156 41.082031 Z"/></svg>